<svg version="1.1" xmlns="http://www.w3.org/2000/svg" xmlns:xlink="http://www.w3.org/1999/xlink" width="17.4px" height="841.9px" viewBox="0,0,5.28125,256"><g fill="#931237" fill-rule="nonzero" stroke="none" stroke-width="1" stroke-linecap="butt" stroke-linejoin="miter" stroke-miterlimit="10" stroke-dasharray="" stroke-dashoffset="0" font-family="none" font-weight="none" font-size="none" text-anchor="none" style="mix-blend-mode: normal"><g transform="translate(-0.06563,-0.60815) scale(0.30407,0.30407)"><g><g><path d="M-0.1,285.8c0,-0.4 0,-0.7 0,-1.1c0.2,0.1 0.3,0.2 0.5,0.3c2.6,-2.6 5.2,-5.2 7.7,-7.7c-1.2,-1.2 -2.3,-2.3 -3.5,-3.5c-1.3,1.3 -2.8,2.8 -4.2,4.2c-0.2,-0.1 -0.3,-0.2 -0.5,-0.3c0,-0.4 0,-0.8 0,-1.2c0.2,0.1 0.3,0.3 0.5,0.3c1.2,-1.2 2.4,-2.4 3.6,-3.6c-1.1,-1.1 -2.3,-2.3 -3.5,-3.5c-0.2,0.2 -0.3,0.3 -0.5,0.5c0,-0.7 0,-1.4 0,-2.1c0.1,0.1 0.2,0.1 0.4,0.2c0,-0.3 0,-0.4 0,-0.6c0,-2 0,-4.1 0,-6.1c0,-0.3 -0.1,-0.5 -0.4,-0.7c0,-0.4 0,-0.7 0,-1.1c0.1,0 0.2,0.1 0.4,0.2c0,-0.2 0,-0.4 0,-0.5c0,-2 0,-4 0,-6c0,-0.3 0,-0.6 -0.4,-0.8c0,-0.4 0,-0.7 0,-1.1c0.1,0 0.2,0.1 0.4,0.2c0,-0.2 0,-0.4 0,-0.6c0,-2 0,-4 0,-6c0,-0.3 0,-0.7 -0.4,-0.8c0,-0.4 0,-0.7 0,-1.1c0.1,0 0.2,0.1 0.3,0.2c0,-2.2 0,-4.4 0,-6.6c-0.2,0 -0.2,0.1 -0.3,0.2c0,-0.7 0,-1.3 0,-2c0.2,0.2 0.4,0.4 0.6,0.5c1.2,-1.2 2.4,-2.4 3.5,-3.5c-1.3,-1.3 -2.7,-2.7 -4,-4.2c0,-0.4 0,-0.7 0,-1.1c0.1,0.1 0.3,0.2 0.4,0.3c1.3,1.3 2.7,2.7 4,4c0.1,0.1 0.2,0.2 0.3,0.3c1.2,-1.2 2.4,-2.4 3.6,-3.6c-0.3,-0.3 -0.7,-0.6 -1,-0.9c-2.4,-2.4 -4.9,-4.9 -7.3,-7.3c0,-0.4 0,-0.7 0,-1.1c0.2,0.1 0.3,0.2 0.4,0.3c2.7,2.7 5.4,5.4 8.2,8.2c0.1,0.1 0.2,0.2 0.3,0.3c1.2,-1.2 2.4,-2.4 3.6,-3.5c-4.2,-4.2 -8.3,-8.3 -12.5,-12.5c0,-0.4 0,-0.7 0,-1.1c0.2,0.1 0.3,0.2 0.5,0.4c4.1,4.1 8.2,8.2 12.3,12.3c0.1,0.1 0.3,0.2 0.3,0.3c1.2,-1.2 2.4,-2.4 3.5,-3.5c-5.3,-5.3 -10.7,-10.7 -16.1,-16.1c-0.1,0.1 -0.3,0.2 -0.4,0.3c0,-0.4 0,-0.7 0,-1.1c0,-0.1 0.1,-0.3 0.1,-0.4c0,-2.2 0,-4.4 0,-6.5c0,-0.1 0,-0.3 -0.1,-0.4c0,-0.7 0,-1.4 0,-2.1c0.2,0.2 0.3,0.3 0.5,0.4c4,-4 8,-8 11.9,-11.9c-1.1,-1.2 -2.3,-2.3 -3.5,-3.5c-2.7,2.7 -5.5,5.5 -8.3,8.4c-0.2,-0.2 -0.3,-0.3 -0.5,-0.4c0,-0.4 0,-0.7 0,-1.1c0.2,0.1 0.3,0.2 0.5,0.3c2.6,-2.6 5.2,-5.2 7.7,-7.7c-1.2,-1.2 -2.3,-2.3 -3.5,-3.5c-1.3,1.3 -2.8,2.8 -4.2,4.2c-0.2,-0.1 -0.3,-0.2 -0.5,-0.3c0,-0.4 0,-0.8 0,-1.2c0.2,0.1 0.3,0.3 0.5,0.3c1.2,-1.2 2.4,-2.4 3.6,-3.6c-1.1,-1.1 -2.3,-2.3 -3.5,-3.5c-0.2,0.2 -0.3,0.3 -0.5,0.5c0,-0.7 0,-1.4 0,-2.1c0.1,0.1 0.2,0.1 0.4,0.2c0,-0.3 0,-0.4 0,-0.6c0,-2 0,-4.1 0,-6.1c0,-0.3 -0.1,-0.5 -0.4,-0.7c0,-0.4 0,-0.7 0,-1.1c0.1,0 0.2,0.1 0.4,0.2c0,-0.2 0,-0.4 0,-0.5c0,-2 0,-4 0,-6c0,-0.3 0,-0.6 -0.4,-0.8c0,-0.4 0,-0.7 0,-1.1c0.1,0 0.2,0.1 0.4,0.2c0,-0.2 0,-0.4 0,-0.6c0,-2 0,-4 0,-6c0,-0.3 0,-0.7 -0.4,-0.8c0,-0.4 0,-0.7 0,-1.1c0.1,0 0.2,0.1 0.3,0.2c0,-2.2 0,-4.4 0,-6.6c-0.2,0 -0.2,0.1 -0.3,0.2c0,-0.7 0,-1.3 0,-2c0.2,0.2 0.4,0.4 0.6,0.5c1.2,-1.2 2.4,-2.4 3.5,-3.5c-1.3,-1.3 -2.7,-2.7 -4,-4.2c0,-0.4 0,-0.7 0,-1.1c0.1,0.1 0.3,0.2 0.4,0.3c1.3,1.3 2.7,2.7 4,4c0.1,0.1 0.2,0.2 0.3,0.3c1.2,-1.2 2.4,-2.4 3.6,-3.6c-0.3,-0.3 -0.7,-0.6 -1,-0.9c-2.4,-2.4 -4.9,-4.9 -7.3,-7.3c0,-0.4 0,-0.7 0,-1.1c0.2,0.1 0.3,0.2 0.4,0.3c2.7,2.7 5.4,5.4 8.2,8.2c0.1,0.1 0.2,0.2 0.3,0.3c1.2,-1.2 2.4,-2.4 3.6,-3.6c-4.2,-4.2 -8.4,-8.4 -12.6,-12.5c0,-0.4 0,-0.7 0,-1.1c0.2,0.1 0.3,0.2 0.5,0.4c4.1,4.1 8.2,8.2 12.3,12.3c0.1,0.1 0.3,0.2 0.3,0.3c1.2,-1.2 2.4,-2.4 3.5,-3.5c-5.4,-5.3 -10.7,-10.7 -16.1,-16c-0.1,0.1 -0.3,0.2 -0.4,0.3c0,-0.4 0,-0.7 0,-1.1c0,-0.1 0.1,-0.3 0.1,-0.4c0,-2.2 0,-4.4 0,-6.5c0,-0.1 0,-0.3 -0.1,-0.4c0,-0.7 0,-1.4 0,-2.1c0.2,0.2 0.3,0.3 0.5,0.4c4,-4 8,-8 11.9,-11.9c-1.1,-1.2 -2.3,-2.3 -3.5,-3.5c-2.7,2.7 -5.5,5.5 -8.3,8.4c-0.2,-0.2 -0.3,-0.3 -0.5,-0.4c0,-0.4 0,-0.7 0,-1.1c0.2,0.1 0.3,0.2 0.5,0.3c2.6,-2.6 5.2,-5.2 7.7,-7.7c-1.2,-1.2 -2.3,-2.3 -3.5,-3.5c-1.3,1.3 -2.8,2.8 -4.2,4.2c-0.2,-0.1 -0.3,-0.2 -0.5,-0.3c0,-0.4 0,-0.8 0,-1.2c0.2,0.1 0.3,0.3 0.5,0.3c1.2,-1.2 2.4,-2.4 3.6,-3.6c-1.1,-1.1 -2.3,-2.3 -3.5,-3.5c-0.2,0.2 -0.3,0.3 -0.5,0.5c0,-0.7 0,-1.4 0,-2.1c0.1,0.1 0.2,0.1 0.4,0.2c0,-0.3 0,-0.4 0,-0.6c0,-2 0,-4.1 0,-6.1c0,-0.3 -0.1,-0.5 -0.4,-0.7c0,-0.4 0,-0.7 0,-1.1c0.1,0 0.2,0.1 0.4,0.2c0,-0.2 0,-0.4 0,-0.5c0,-2 0,-4 0,-6c0,-0.3 0,-0.6 -0.4,-0.8c0,-0.4 0,-0.7 0,-1.1c0.1,0 0.2,0.1 0.4,0.2c0,-0.2 0,-0.4 0,-0.6c0,-2 0,-4 0,-6c0,-0.3 0,-0.7 -0.4,-0.8c0,-0.4 0,-0.7 0,-1.1c0.1,0 0.2,0.1 0.3,0.2c0,-2.2 0,-4.4 0,-6.6c-0.2,0 -0.2,0.1 -0.3,0.2c0,-0.7 0,-1.3 0,-2c0.2,0.2 0.4,0.4 0.6,0.5c1.2,-1.2 2.4,-2.4 3.5,-3.5c-1.3,-1.3 -2.7,-2.7 -4,-4.2c0,-0.4 0,-0.7 0,-1.1c0.1,0.1 0.3,0.2 0.4,0.3c1.3,1.3 2.7,2.7 4,4c0.1,0.1 0.2,0.2 0.3,0.3c1.2,-1.2 2.4,-2.4 3.6,-3.6c-0.3,-0.3 -0.7,-0.6 -1,-0.9c-2.5,-2.5 -4.9,-4.9 -7.3,-7.4c0,-0.4 0,-0.7 0,-1.1c-0.8,-0.7 -0.6,-0.6 -0.5,-0.5c2.7,2.7 5.4,5.4 8.2,8.1c0.1,0.1 0.2,0.2 0.3,0.3c1.2,-1.2 2.4,-2.4 3.6,-3.5c-4.2,-4.2 -8.4,-8.3 -12.5,-12.4c0,-0.4 0,-0.7 0,-1.1c0.2,0.1 0.3,0.2 0.5,0.4c4.1,4.1 8.2,8.2 12.3,12.3c0.1,0.1 0.3,0.2 0.3,0.3c1.2,-1.2 2.4,-2.4 3.5,-3.5c-5.5,-5.4 -10.8,-10.8 -16.2,-16.1c-0.1,0 -0.3,0.1 -0.4,0.3c0,-1.1 0,-2.1 0,-3.2c0.3,0 0.6,0 0.9,0c0,0.5 0,1.1 0,1.6c0,0.2 0.1,0.5 0.3,0.7c0.8,0.9 1.8,1.8 2.7,2.7c0,0 0.1,0.1 0.3,0.2c0,-1.8 0,-3.5 0,-5.2c0.3,0 0.5,0 0.8,0c0,1.9 0,3.9 0,5.8c0.1,0.2 0.2,0.4 0.3,0.6c0.9,0.9 1.8,1.8 2.8,2.7c0.1,0.1 0.2,0.1 0.3,0.2c0,-1.3 0,-2.5 0,-3.6c0,-1.9 0,-3.8 0,-5.7c0.3,0 0.5,0 0.8,0c0,3.4 0,6.7 0,10c0,0.2 0.1,0.4 0.2,0.5c0.9,0.9 1.8,1.8 2.7,2.7c0.1,0.1 0.2,0.1 0.3,0.2c0,-0.3 0,-0.5 0,-0.7c0,-4.1 0,-8.2 0,-12.3c0,-0.2 0,-0.4 0,-0.6c0.2,0 0.5,0 0.7,0c0,0.2 0,0.4 0,0.7c0,4.4 0,8.8 0,13.3c0,0.2 0,0.5 0.2,0.7c1.1,1.1 2.2,2.2 3.3,3.3c0,0.7 0,1.4 0,2.1c-1,1 -1.9,2 -2.9,3.1c0.9,0.9 1.9,1.9 2.9,2.9c0,0.4 0,0.7 0,1.1c-0.7,-0.7 -1.4,-1.3 -2.1,-2c-0.5,-0.5 -1,-1 -1.4,-1.4c-1.2,1.2 -2.4,2.4 -3.5,3.5c0,0 0.1,0.1 0.2,0.2c2.2,2.2 4.4,4.4 6.6,6.6c0.1,0.1 0.2,0.1 0.3,0.2c0,0.4 0,0.8 0,1.2c-0.1,-0.1 -0.3,-0.2 -0.4,-0.3c-2.3,-2.3 -4.6,-4.6 -6.9,-6.9c-0.2,-0.2 -0.2,-0.3 -0.3,-0.4c-1.3,1.3 -2.4,2.5 -3.6,3.6c0,0 0.1,0.1 0.2,0.2c3.6,3.6 7.2,7.2 10.7,10.7c0.1,0.1 0.2,0.2 0.3,0.2c0,0.4 0,0.8 0,1.2c-0.2,-0.2 -0.3,-0.3 -0.4,-0.4c-3.7,-3.7 -7.3,-7.3 -11,-11c-0.1,-0.2 -0.2,-0.3 -0.3,-0.4c-1.2,1.2 -2.4,2.4 -3.5,3.5c0.1,0.1 0.2,0.2 0.3,0.3c3.7,3.7 7.3,7.3 11,11c1.3,1.3 2.7,2.7 4,4c0,0.4 0,0.7 0,1.1c-0.1,-0.1 -0.3,-0.2 -0.4,-0.3c-2.2,-2.2 -4.3,-4.3 -6.5,-6.5c-0.1,-0.1 -0.2,-0.3 -0.2,-0.5c0,0 -0.1,0.1 -0.2,0.2c0,4.8 0,9.5 0,14.3c0,0 0.1,0 0.1,0.1c0.1,-0.1 0.2,-0.3 0.3,-0.4c2.2,-2.2 4.3,-4.3 6.4,-6.4c0.1,-0.1 0.3,-0.2 0.4,-0.3c0,0.4 0,0.7 0,1.1c-0.2,0.2 -0.3,0.3 -0.4,0.4c-2.5,2.5 -5,5 -7.5,7.5c-2.4,2.4 -4.7,4.7 -7.1,7.1c-0.1,0.1 -0.2,0.3 -0.3,0.3c1.2,1.2 2.4,2.4 3.6,3.6c0.1,-0.2 0.2,-0.3 0.3,-0.5c3.7,-3.7 7.3,-7.4 11,-11c0.1,-0.1 0.3,-0.2 0.4,-0.3c0,0.4 0,0.8 0,1.2c-0.1,0.1 -0.2,0.2 -0.3,0.3c-3.5,3.5 -7.1,7.1 -10.6,10.6c-0.1,0.1 -0.2,0.2 -0.3,0.3c1.2,1.2 2.4,2.4 3.5,3.5c0.1,-0.1 0.2,-0.2 0.4,-0.3c2.3,-2.3 4.6,-4.6 6.9,-6.9c0.1,-0.1 0.3,-0.2 0.4,-0.3c0,0.4 0,0.8 0,1.2c-0.1,0.1 -0.2,0.2 -0.3,0.2c-2.2,2.2 -4.4,4.4 -6.6,6.6c-0.1,0.1 -0.2,0.2 -0.2,0.2c1.2,1.2 2.4,2.4 3.5,3.5c0.8,-0.8 1.8,-1.8 2.7,-2.7c0.3,-0.3 0.5,-0.5 0.8,-0.7c0,0.4 0,0.7 0,1.1c-1,1 -2,2 -2.9,2.9c1,1 2,2 2.9,3c0,0.4 0,0.7 0,1.1c-0.1,-0.1 -0.3,-0.2 -0.4,-0.3c-0.9,-0.9 -1.8,-1.8 -2.7,-2.7c-0.1,-0.1 -0.2,-0.2 -0.4,-0.3c0,0.3 0,0.5 0,0.7c0,5.9 0,11.8 0,17.7c0,4.5 0,9 0,13.6c0,0.2 0,0.5 0.2,0.7c1.1,1.1 2.2,2.2 3.3,3.3c0,0.7 0,1.4 0,2.1c-1,1 -1.9,2 -2.9,3.1c0.9,0.9 1.9,1.9 2.9,2.9c0,0.4 0,0.7 0,1.1c-0.7,-0.7 -1.4,-1.3 -2.1,-2c-0.5,-0.5 -1,-1 -1.4,-1.4c-1.2,1.2 -2.4,2.4 -3.5,3.5c0,0 0.1,0.1 0.2,0.2c2.2,2.2 4.4,4.4 6.6,6.6c0.1,0.1 0.2,0.1 0.3,0.2c0,0.4 0,0.8 0,1.2c-0.1,-0.1 -0.3,-0.2 -0.4,-0.3c-2.3,-2.3 -4.6,-4.6 -6.9,-6.9c-0.2,-0.2 -0.2,-0.3 -0.3,-0.4c-1.3,1.3 -2.4,2.5 -3.6,3.6c0,0 0.1,0.1 0.2,0.2c3.6,3.6 7.2,7.2 10.7,10.7c0.1,0.1 0.2,0.2 0.3,0.2c0,0.4 0,0.8 0,1.2c-0.2,-0.2 -0.3,-0.3 -0.4,-0.4c-3.7,-3.7 -7.3,-7.3 -11,-11c-0.2,-0.2 -0.3,-0.3 -0.3,-0.3c-1.2,1.2 -2.4,2.4 -3.5,3.5c0.1,0.1 0.2,0.2 0.3,0.3c3.7,3.7 7.3,7.3 11,11c1.3,1.3 2.7,2.7 4,4c0,0.4 0,0.7 0,1.1c-0.1,-0.1 -0.3,-0.2 -0.4,-0.3c-2.2,-2.2 -4.3,-4.3 -6.5,-6.5c-0.1,-0.1 -0.2,-0.3 -0.2,-0.5c0,0 -0.1,0.1 -0.2,0.2c0,4.8 0,9.5 0,14.3h0.1c0.1,-0.1 0.2,-0.2 0.3,-0.3c2.2,-2.2 4.3,-4.3 6.4,-6.4c0.1,-0.1 0.3,-0.2 0.4,-0.3c0,0.4 0,0.7 0,1.1c-0.2,0.2 -0.3,0.3 -0.4,0.4c-2.5,2.5 -5,5 -7.5,7.5c-2.4,2.4 -4.7,4.7 -7.1,7.1c-0.1,0.1 -0.2,0.3 -0.3,0.3c1.2,1.2 2.4,2.4 3.6,3.6c0.1,-0.2 0.2,-0.3 0.3,-0.5c3.7,-3.7 7.3,-7.4 11,-11c0.1,-0.1 0.3,-0.2 0.4,-0.3c0,0.4 0,0.8 0,1.2c-0.1,0.1 -0.2,0.2 -0.3,0.3c-3.5,3.5 -7.1,7.1 -10.6,10.6c-0.1,0.1 -0.2,0.2 -0.3,0.3c1.2,1.2 2.4,2.4 3.5,3.5c0.1,-0.1 0.2,-0.2 0.4,-0.3c2.3,-2.3 4.6,-4.6 6.9,-6.9c0.1,-0.1 0.3,-0.2 0.4,-0.3c0,0.4 0,0.8 0,1.2c-0.1,0.1 -0.2,0.2 -0.3,0.2c-2.2,2.2 -4.4,4.4 -6.6,6.6c-0.1,0.1 -0.2,0.2 -0.2,0.2c1.2,1.2 2.4,2.4 3.5,3.5c0.8,-0.8 1.8,-1.8 2.7,-2.7c0.3,-0.3 0.5,-0.5 0.8,-0.7c0,0.4 0,0.7 0,1.1c-1,1 -2,2 -2.9,2.9c1,1 2,2 2.9,3c0,0.4 0,0.7 0,1.1c-0.1,-0.1 -0.3,-0.2 -0.4,-0.3c-0.9,-0.9 -1.8,-1.8 -2.7,-2.7c-0.1,-0.1 -0.2,-0.2 -0.4,-0.3c0,0.3 0,0.5 0,0.7c0,5.9 0,11.8 0,17.7c0,4.5 0,9 0,13.6c0,0.2 0,0.5 0.2,0.7c1.1,1.1 2.2,2.2 3.3,3.3c0,0.7 0,1.4 0,2.1c-1,1 -1.9,2 -2.9,3.1c0.9,0.9 1.9,1.9 2.9,2.9c0,0.4 0,0.7 0,1.1c-0.7,-0.7 -1.4,-1.3 -2.1,-2c-0.5,-0.5 -1,-1 -1.4,-1.4c-1.2,1.2 -2.4,2.4 -3.5,3.5c0,0 0.1,0.1 0.2,0.2c2.2,2.2 4.4,4.4 6.6,6.6c0.1,0.1 0.2,0.1 0.3,0.2c0,0.4 0,0.8 0,1.2c-0.1,-0.1 -0.3,-0.2 -0.4,-0.3c-2.3,-2.3 -4.6,-4.6 -6.9,-6.9c-0.2,-0.2 -0.2,-0.3 -0.3,-0.4c-1.3,1.3 -2.4,2.5 -3.6,3.6c0,0 0.1,0.1 0.2,0.2c3.6,3.6 7.2,7.2 10.7,10.7c0.1,0.1 0.2,0.2 0.3,0.2c0,0.4 0,0.8 0,1.2c-0.2,-0.2 -0.3,-0.3 -0.4,-0.4c-3.7,-3.7 -7.3,-7.3 -11,-11c-0.2,-0.2 -0.3,-0.3 -0.3,-0.3c-1.2,1.2 -2.4,2.4 -3.5,3.5c0.1,0.1 0.2,0.2 0.3,0.3c3.7,3.7 7.3,7.3 11,11c1.3,1.3 2.7,2.7 4,4c0,0.4 0,0.7 0,1.1c-0.1,-0.1 -0.3,-0.2 -0.4,-0.3c-2.2,-2.2 -4.3,-4.3 -6.5,-6.5c-0.1,-0.1 -0.2,-0.3 -0.2,-0.5c0,0 -0.1,0.1 -0.2,0.2c0,4.8 0,9.5 0,14.4c0.2,-0.2 0.3,-0.3 0.4,-0.4c2.2,-2.2 4.3,-4.3 6.4,-6.4c0.1,-0.1 0.3,-0.2 0.4,-0.3c0,0.4 0,0.7 0,1.1c-0.2,0.2 -0.3,0.3 -0.4,0.4c-2.5,2.5 -5,5 -7.5,7.5c-2.4,2.4 -4.7,4.7 -7.1,7.1c-0.1,0.1 -0.2,0.3 -0.3,0.3c1.2,1.2 2.4,2.4 3.6,3.6c0.1,-0.2 0.2,-0.3 0.3,-0.5c3.7,-3.7 7.3,-7.4 11,-11c0.1,-0.1 0.3,-0.2 0.4,-0.3c0,0.4 0,0.8 0,1.2c-0.1,0.1 -0.2,0.2 -0.3,0.3c-3.5,3.5 -7.1,7.1 -10.6,10.6c-0.1,0.1 -0.2,0.2 -0.3,0.3c1.2,1.2 2.4,2.4 3.5,3.5c0.1,-0.1 0.2,-0.2 0.4,-0.3c2.3,-2.3 4.6,-4.6 6.9,-6.9c0.1,-0.1 0.3,-0.2 0.4,-0.3c0,0.4 0,0.8 0,1.2c-0.1,0.1 -0.2,0.2 -0.3,0.2c-2.2,2.2 -4.4,4.4 -6.6,6.6c-0.1,0.1 -0.2,0.2 -0.2,0.2c1.2,1.2 2.4,2.4 3.5,3.5c0.9,-0.9 1.8,-1.8 2.7,-2.7c0.3,-0.3 0.5,-0.5 0.8,-0.7c0,0.4 0,0.7 0,1.1c-1,1 -2,2 -2.9,2.9c1,1 2,2 2.9,3c0,0.4 0,0.7 0,1.1c-0.1,-0.1 -0.3,-0.2 -0.4,-0.3c-0.9,-0.9 -1.8,-1.8 -2.7,-2.7c-0.1,-0.1 -0.2,-0.2 -0.4,-0.3c0,0.3 0,0.5 0,0.7c0,5.9 0,11.8 0,17.7c0,4.5 0,9 0,13.6c0,0.2 0,0.5 0.2,0.7c1.1,1.1 2.2,2.2 3.3,3.3c0,0.7 0,1.4 0,2.1c-1,1 -1.9,2 -2.9,3.1c0.9,0.9 1.9,1.9 2.9,2.9c0,0.4 0,0.7 0,1.1c-0.7,-0.7 -1.4,-1.3 -2.1,-2c-0.5,-0.5 -1,-1 -1.4,-1.4c-1.2,1.2 -2.4,2.4 -3.5,3.5c0,0 0.1,0.1 0.2,0.2c2.2,2.2 4.4,4.4 6.6,6.6c0.1,0.1 0.2,0.1 0.3,0.2c0,0.4 0,0.8 0,1.2c-0.1,-0.1 -0.3,-0.2 -0.4,-0.3c-2.3,-2.3 -4.6,-4.6 -6.9,-6.9c-0.2,-0.2 -0.2,-0.3 -0.3,-0.4c-1.3,1.3 -2.4,2.5 -3.6,3.6c0,0 0.1,0.1 0.2,0.2c3.6,3.6 7.2,7.2 10.7,10.7c0.1,0.1 0.2,0.2 0.3,0.2c0,0.4 0,0.8 0,1.2c-0.2,-0.2 -0.3,-0.3 -0.4,-0.4c-3.7,-3.7 -7.3,-7.3 -11,-11c-0.2,-0.2 -0.3,-0.3 -0.3,-0.3c-1.2,1.2 -2.4,2.4 -3.5,3.5c0.1,0.1 0.2,0.2 0.3,0.3c3.7,3.7 7.3,7.3 11,11c1.3,1.3 2.7,2.7 4,4c0,0.4 0,0.7 0,1.1c-0.1,-0.1 -0.3,-0.2 -0.4,-0.3c-2.2,-2.2 -4.3,-4.3 -6.5,-6.5c-0.1,-0.1 -0.2,-0.3 -0.2,-0.5c0,0 -0.1,0.1 -0.2,0.2c0,4.8 0,9.5 0,14.3c0,0 0.1,0 0.1,0.1c0.1,-0.1 0.2,-0.3 0.3,-0.4c2.2,-2.2 4.3,-4.3 6.4,-6.4c0.1,-0.1 0.3,-0.2 0.4,-0.3c0,0.4 0,0.7 0,1.1c-0.2,0.2 -0.3,0.3 -0.4,0.4c-2.5,2.5 -5,5 -7.5,7.5c-2.4,2.4 -4.7,4.7 -7.1,7.1c-0.1,0.1 -0.2,0.3 -0.3,0.3c1.2,1.2 2.4,2.4 3.6,3.6c0.1,-0.2 0.2,-0.3 0.3,-0.5c3.7,-3.7 7.3,-7.4 11,-11c0.1,-0.1 0.3,-0.2 0.4,-0.3c0,0.4 0,0.8 0,1.2c-0.1,0.1 -0.2,0.2 -0.3,0.3c-3.5,3.5 -7.1,7.1 -10.6,10.6c-0.1,0.1 -0.2,0.2 -0.3,0.3c1.2,1.2 2.4,2.4 3.5,3.5c0.1,-0.1 0.2,-0.2 0.4,-0.3c2.3,-2.3 4.6,-4.6 6.9,-6.9c0.1,-0.1 0.3,-0.2 0.4,-0.3c0,0.4 0,0.8 0,1.2c-0.1,0.1 -0.2,0.2 -0.3,0.2c-2.2,2.2 -4.4,4.4 -6.6,6.6c-0.1,0.1 -0.2,0.2 -0.2,0.2c1.2,1.2 2.4,2.4 3.5,3.5c0.9,-0.9 1.8,-1.8 2.7,-2.7c0.3,-0.3 0.5,-0.5 0.8,-0.7c0,0.4 0,0.7 0,1.1c-1,1 -2,2 -2.9,2.9c1,1 2,2 2.9,3c0,0.4 0,0.7 0,1.1c-0.1,-0.1 -0.3,-0.2 -0.4,-0.3c-0.9,-0.9 -1.8,-1.8 -2.7,-2.7c-0.1,-0.1 -0.2,-0.2 -0.4,-0.3c0,0.3 0,0.5 0,0.7c0,5.9 0,11.8 0,17.7c0,4.5 0,9 0,13.6c0,0.2 0,0.5 0.2,0.7c1.1,1.1 2.2,2.2 3.3,3.3c0,0.7 0,1.4 0,2.1c-1,1 -1.9,2 -2.9,3.1c0.9,0.9 1.9,1.9 2.9,2.9c0,0.4 0,0.7 0,1.1c-0.7,-0.7 -1.4,-1.3 -2.1,-2c-0.5,-0.5 -1,-1 -1.4,-1.4c-1.2,1.2 -2.4,2.4 -3.5,3.5c0,0 0.1,0.1 0.2,0.2c2.2,2.2 4.4,4.4 6.6,6.6c0.1,0.1 0.2,0.1 0.3,0.2c0,0.4 0,0.8 0,1.2c-0.1,-0.1 -0.3,-0.2 -0.4,-0.3c-2.3,-2.3 -4.6,-4.6 -6.9,-6.9c-0.2,-0.2 -0.2,-0.3 -0.3,-0.4c-1.3,1.3 -2.4,2.5 -3.6,3.6c0,0 0.1,0.1 0.2,0.2c3.6,3.6 7.2,7.2 10.7,10.7c0.1,0.1 0.2,0.2 0.3,0.2c0,0.4 0,0.8 0,1.2c-0.2,-0.2 -0.3,-0.3 -0.4,-0.4c-3.7,-3.7 -7.3,-7.3 -11,-11c-0.2,-0.2 -0.2,-0.3 -0.3,-0.4c-1.3,1.3 -2.4,2.4 -3.7,3.7c0.1,0.1 0.2,0.2 0.3,0.3c2.6,2.6 5.2,5.2 7.7,7.7c0.1,0.1 0.2,0.3 0.3,0.4c-0.4,0 -0.8,0 -1.2,0c-0.1,-0.1 -0.2,-0.3 -0.3,-0.4c-0.8,-0.8 -1.6,-1.6 -2.4,-2.4c-0.1,-0.2 -0.2,-0.3 -0.3,-0.5c-0.1,0 -0.2,0.1 -0.2,0.2c0,1 0,2.1 0,3.2c-0.3,0 -0.5,0 -0.8,0c0,-1.3 0,-2.5 0,-3.8c0,-0.2 -0.1,-0.5 -0.2,-0.6c-1,-1 -1.9,-2 -2.9,-2.9c-0.1,-0.1 -0.1,-0.1 -0.3,-0.2c0,0.3 0,0.4 0,0.6c0,2.3 0,4.6 0,6.9c-0.4,0 -0.8,0 -1.2,0c0,-0.4 0,-0.8 0,-1.3c0.1,0 0.2,0.1 0.3,0.2c0,-2.2 0,-4.4 0,-6.6c-0.2,0 -0.2,0.1 -0.3,0.2c0,-0.7 0,-1.3 0,-2c0.2,0.2 0.4,0.4 0.6,0.5c1.2,-1.2 2.4,-2.4 3.5,-3.5c-1.3,-1.3 -2.7,-2.7 -4,-4.2c0,-0.4 0,-0.7 0,-1.1c0.1,0.1 0.3,0.2 0.4,0.3c1.3,1.3 2.7,2.7 4,4c0.1,0.1 0.2,0.2 0.3,0.3c1.2,-1.2 2.4,-2.4 3.6,-3.6c-0.3,-0.3 -0.7,-0.6 -1,-0.9c-2.4,-2.4 -4.9,-4.9 -7.3,-7.3c0,-0.4 0,-0.7 0,-1.1c0.2,0.1 0.3,0.2 0.4,0.3c2.7,2.7 5.4,5.4 8.2,8.2c0.1,0.1 0.2,0.2 0.3,0.3c1.2,-1.2 2.4,-2.4 3.6,-3.6c-4.1,-4.1 -8.3,-8.2 -12.4,-12.4c0,-0.4 0,-0.7 0,-1.1c0.2,0.1 0.3,0.2 0.5,0.4c4.1,4.1 8.2,8.2 12.3,12.3c0.1,0.1 0.3,0.2 0.3,0.3c1.2,-1.2 2.4,-2.4 3.5,-3.5c-5.3,-5.3 -10.7,-10.7 -16.1,-16.1c-0.1,0.1 -0.3,0.2 -0.4,0.3c0,-0.4 0,-0.7 0,-1.1c0,-0.1 0.1,-0.3 0.1,-0.4c0,-2.2 0,-4.4 0,-6.5c0,-0.1 0,-0.3 -0.1,-0.4c0,-0.7 0,-1.4 0,-2.1c0.2,0.2 0.3,0.3 0.5,0.4c4,-4 8,-8 11.9,-11.9c-1.1,-1.2 -2.3,-2.3 -3.5,-3.5c-2.7,2.7 -5.5,5.5 -8.3,8.4c-0.2,-0.2 -0.3,-0.3 -0.5,-0.4c0,-0.4 0,-0.7 0,-1.1c0.2,0.1 0.3,0.2 0.5,0.3c2.6,-2.6 5.2,-5.2 7.7,-7.7c-1.2,-1.2 -2.3,-2.3 -3.5,-3.5c-1.3,1.3 -2.8,2.8 -4.2,4.2c-0.2,-0.1 -0.3,-0.2 -0.5,-0.3c0,-0.4 0,-0.8 0,-1.2c0.2,0.1 0.3,0.3 0.5,0.3c1.2,-1.2 2.4,-2.4 3.6,-3.6c-1.1,-1.1 -2.3,-2.3 -3.5,-3.5c-0.2,0.2 -0.3,0.3 -0.5,0.5c0,-0.7 0,-1.4 0,-2.1c0.1,0.1 0.2,0.1 0.4,0.2c0,-0.3 0,-0.4 0,-0.6c0,-2 0,-4.1 0,-6.1c0,-0.3 -0.1,-0.5 -0.4,-0.7c0,-0.4 0,-0.7 0,-1.1c0.1,0 0.2,0.1 0.4,0.2c0,-0.2 0,-0.4 0,-0.5c0,-2 0,-4 0,-6c0,-0.3 0,-0.6 -0.4,-0.8c0,-0.4 0,-0.7 0,-1.1c0.1,0 0.2,0.1 0.4,0.2c0,-0.2 0,-0.4 0,-0.6c0,-2 0,-4 0,-6c0,-0.3 0,-0.7 -0.4,-0.8c0,-0.4 0,-0.7 0,-1.1c0.1,0 0.2,0.1 0.3,0.2c0,-2.2 0,-4.4 0,-6.6c-0.2,0 -0.2,0.1 -0.3,0.2c0,-0.7 0,-1.3 0,-2c0.2,0.2 0.4,0.4 0.6,0.5c1.2,-1.2 2.4,-2.4 3.5,-3.5c-1.3,-1.3 -2.7,-2.7 -4,-4.2c0,-0.4 0,-0.7 0,-1.1c0.1,0.1 0.3,0.2 0.4,0.3c1.3,1.3 2.7,2.7 4,4c0.1,0.1 0.2,0.2 0.3,0.3c1.2,-1.2 2.4,-2.4 3.6,-3.6c-0.3,-0.3 -0.7,-0.6 -1,-0.9c-2.4,-2.4 -4.9,-4.9 -7.3,-7.3c0,-0.4 0,-0.7 0,-1.1c0.2,0.1 0.3,0.2 0.4,0.3c2.7,2.7 5.4,5.4 8.2,8.2c0.1,0.1 0.2,0.2 0.3,0.3c1.2,-1.2 2.4,-2.4 3.6,-3.5c-4.8,-4 -9,-8.2 -13.1,-12.3c0,-0.4 0,-0.7 0,-1.1c0.2,0.1 0.3,0.2 0.5,0.4c4.1,4.1 8.2,8.2 12.3,12.3c0.1,0.1 0.3,0.2 0.3,0.3c1.2,-1.2 2.4,-2.4 3.5,-3.5c-5.3,-5.4 -10.7,-10.7 -16.1,-16.1c-0.1,0.1 -0.3,0.2 -0.4,0.3c0,-0.4 0,-0.7 0,-1.1c0,-0.1 0.1,-0.3 0.1,-0.4c0,-2.2 0,-4.4 0,-6.5c0,-0.1 0,-0.3 -0.1,-0.4c0,-0.7 0,-1.4 0,-2.1c0.2,0.2 0.3,0.3 0.5,0.4c4,-4 8,-8 11.9,-11.9c-1.2,-1.2 -2.3,-2.3 -3.5,-3.5c-2.7,2.7 -5.5,5.5 -8.3,8.4c-0.2,-1.4 -0.4,-1.5 -0.5,-1.7zM1.1,367.8c0.1,0 0.1,0 0.2,-0.1c1,-1 2,-2 3,-3c0.1,-0.1 0.2,-0.3 0.2,-0.5c0,-7.9 0,-15.8 0,-23.8c0,-0.2 -0.1,-0.4 -0.2,-0.5c-1,-1 -2,-2 -3,-3c0,0 -0.1,0 -0.2,-0.1c0,10.4 0,20.7 0,31zM1.1,37.4c0,10.4 0,20.7 0,31.1c0.1,0 0.2,-0.1 0.2,-0.1c1,-1 2,-2 3,-3c0.1,-0.1 0.2,-0.3 0.2,-0.5c0,-7.9 0,-15.8 0,-23.7c0,-0.2 0,-0.3 -0.1,-0.5c-1.1,-1.1 -2.1,-2.2 -3.3,-3.3zM1.1,268c0.1,0 0.2,-0.1 0.2,-0.1c1,-1 2,-2 3,-3c0.1,-0.1 0.2,-0.3 0.2,-0.5c0,-7.9 0,-15.8 0,-23.7c0,-0.2 -0.1,-0.5 -0.3,-0.7c-0.9,-1 -1.8,-1.9 -2.8,-2.8c-0.1,-0.1 -0.2,-0.2 -0.3,-0.2c0,10.4 0,20.7 0,31zM1.1,137.2c0,10.4 0,20.7 0,31.1c0.1,0 0.1,0 0.2,-0.1c1,-1 2,-2 3.1,-3.1c0.1,-0.1 0.2,-0.3 0.2,-0.5c0,-7.9 0,-15.8 0,-23.7c0,-0.2 0,-0.3 -0.1,-0.5c-1.2,-1 -2.2,-2.1 -3.4,-3.2zM12.4,382.4c-1,1 -2,2 -3,3c-0.2,0.2 -0.3,0.5 -0.3,0.7c0,8 0,15.9 0,23.9c0,0.2 0.1,0.5 0.3,0.7c0.9,0.9 1.8,1.8 2.7,2.7c0.1,0.1 0.2,0.2 0.3,0.3c0,-10.5 0,-20.8 0,-31.3zM12.4,114.4c0,-10.5 0,-20.8 0,-31.3c-1,1 -1.9,1.9 -2.9,2.9c-0.3,0.3 -0.4,0.6 -0.4,1c0,7.7 0,15.5 0,23.2c0,0.7 0.2,1.2 0.7,1.7c0.9,0.7 1.7,1.5 2.6,2.5zM12.3,214.2c0,-10.5 0,-20.8 0,-31.3c-1,1 -1.9,1.9 -2.9,2.9c-0.3,0.3 -0.4,0.6 -0.4,1c0,7.3 0,14.7 0,22c0,0.7 -0.2,1.5 0.1,2.1c0.3,0.6 0.9,1 1.4,1.5c0.7,0.5 1.2,1.1 1.8,1.8zM12.4,282.6c-1,1 -1.8,1.9 -2.8,2.8c-0.4,0.3 -0.5,0.7 -0.5,1.2c0,1.9 0,3.9 0,5.8c0,5.9 0,11.8 0,17.6c0,0.4 0.1,0.7 0.4,0.9c0.7,0.7 1.5,1.5 2.2,2.2c0.2,0.2 0.4,0.5 0.6,0.7l0.1,-0.1c0,-10.3 0,-20.6 0,-31.1zM8.1,210l0.1,-0.1c0,-7.6 0,-15.2 0,-22.8c-0.1,0 -0.1,0 -0.2,0.1c-1,1 -2,2 -2.9,2.9c-0.1,0.1 -0.1,0.3 -0.1,0.5c0,5.2 0,10.5 0,15.7c0,0.2 0.1,0.5 0.3,0.7c0.7,0.8 1.5,1.5 2.2,2.2c0.2,0.3 0.4,0.5 0.6,0.8zM8.2,110.2c0,-7.7 0,-15.3 0,-23c-0.2,0.2 -0.3,0.2 -0.4,0.3c-0.8,0.9 -1.5,1.7 -2.4,2.5c-0.3,0.3 -0.5,0.7 -0.5,1.1c0,4.9 0,9.7 0,14.5c0,1 0.2,1.7 1,2.3c0.8,0.7 1.5,1.5 2.3,2.3zM8.1,309.8c0,0 0.1,-0.1 0.2,-0.1c0,-7.6 0,-15.2 0,-22.8c-0.1,0 -0.1,0 -0.2,0.1c-1,1 -2,2 -2.9,2.9c-0.2,0.1 -0.2,0.3 -0.2,0.5c0,5.3 0,10.5 0,15.8c0,0.2 0.1,0.4 0.3,0.6c0.6,0.7 1.2,1.2 1.8,1.9c0.3,0.3 0.7,0.7 1,1.1zM8.2,386.6c-0.1,0 -0.1,0 -0.2,0.1c-1,1 -2,2 -2.9,2.9c-0.1,0.2 -0.1,0.4 -0.1,0.6c0,5.2 0,10.5 0,15.7c0,0.2 0.1,0.5 0.3,0.7c0.7,0.8 1.5,1.5 2.2,2.2c0.2,0.2 0.4,0.5 0.7,0.8l0.1,-0.1c-0.1,-7.6 -0.1,-15.2 -0.1,-22.9zM5.4,241.2c0,7.6 0,15.1 0,22.7c1,-1 2,-2 3,-3c0.1,-0.1 0.2,-0.3 0.2,-0.5c0,-5.2 0,-10.4 0,-15.6c0,-0.2 0,-0.3 -0.2,-0.5c-1,-1 -1.9,-2 -3,-3.1zM5.4,141.4c0,7.6 0,15.1 0,22.6c1,-1 2,-2 3,-3c0.1,-0.1 0.2,-0.3 0.2,-0.5c0,-5.2 0,-10.4 0,-15.6c0,-0.2 0,-0.3 -0.2,-0.5c-1,-0.9 -2,-1.9 -3,-3zM5.3,363.6c0.1,-0.1 0.2,-0.1 0.2,-0.2c0.9,-0.9 1.9,-1.8 2.8,-2.8c0.1,-0.1 0.2,-0.4 0.2,-0.6c0,-5.2 0,-10.3 0,-15.5c0,-0.2 -0.1,-0.5 -0.3,-0.7c-0.8,-0.9 -1.7,-1.7 -2.6,-2.6c-0.1,-0.1 -0.2,-0.2 -0.3,-0.2c0,7.6 0,15 0,22.6zM5.4,64.3c1.1,-1.1 2.1,-2 3,-3c0.1,-0.1 0.2,-0.3 0.2,-0.5c0,-5.2 0,-10.4 0,-15.5c0,-0.2 -0.1,-0.5 -0.3,-0.7c-0.7,-0.7 -1.4,-1.4 -2.2,-2.2c-0.2,-0.2 -0.4,-0.5 -0.6,-0.7l-0.1,0.1c0,7.4 0,14.9 0,22.5zM4.1,291c-0.2,0.2 -0.3,0.2 -0.3,0.3c-0.9,0.9 -1.8,1.7 -2.6,2.7c-0.2,0.2 -0.3,0.5 -0.3,0.7c0,2.5 0,4.9 0,7.4c0,0.2 0.1,0.5 0.3,0.7c0.8,0.9 1.8,1.8 2.6,2.7c0.1,0.1 0.2,0.2 0.3,0.3c0,-5.1 0,-9.9 0,-14.8zM4.1,205.8c0,-4.9 0,-9.7 0,-14.6c-0.1,0.1 -0.2,0.1 -0.2,0.2c-1,1 -1.9,1.9 -2.9,2.9c-0.1,0.1 -0.2,0.3 -0.2,0.5c0,2.5 0,5 0,7.4c0,0.2 0.1,0.5 0.3,0.6c0.8,0.9 1.7,1.7 2.6,2.6c0.1,0.1 0.2,0.2 0.4,0.4zM4.1,91.4c-0.1,0 -0.2,0.1 -0.2,0.1c-1,1 -2,2 -2.9,2.9c-0.1,0.1 -0.2,0.3 -0.2,0.5c0,2.5 0,4.9 0,7.4c0,0.2 0.1,0.5 0.3,0.7c0.9,0.9 1.8,1.8 2.7,2.7c0.1,0.1 0.2,0.2 0.3,0.2c0,-4.8 0,-9.6 0,-14.5zM4.1,405.4c0,-4.9 0,-9.7 0,-14.6c-0.1,0.1 -0.2,0.1 -0.2,0.2c-1,1 -1.9,1.9 -2.9,2.9c-0.1,0.1 -0.2,0.3 -0.2,0.5c0,2.5 0,5 0,7.4c0,0.2 0.1,0.5 0.3,0.6c0.8,0.9 1.7,1.7 2.6,2.6c0.1,0.1 0.2,0.2 0.4,0.4z"></path></g><g><path d="M-0.1,685.1c0,-0.4 0,-0.7 0,-1.1c0.2,0.1 0.3,0.2 0.5,0.3c2.6,-2.6 5.2,-5.2 7.7,-7.7c-1.2,-1.2 -2.3,-2.3 -3.5,-3.5c-1.3,1.3 -2.8,2.8 -4.2,4.2c-0.2,-0.1 -0.3,-0.2 -0.5,-0.3c0,-0.4 0,-0.8 0,-1.2c0.2,0.1 0.3,0.3 0.5,0.3c1.2,-1.2 2.4,-2.4 3.6,-3.6c-1.1,-1.1 -2.3,-2.3 -3.5,-3.5c-0.2,0.2 -0.3,0.3 -0.5,0.5c0,-0.7 0,-1.4 0,-2.1c0.1,0.1 0.2,0.1 0.4,0.2c0,-0.3 0,-0.4 0,-0.6c0,-2 0,-4.1 0,-6.1c0,-0.3 -0.1,-0.5 -0.4,-0.7c0,-0.4 0,-0.7 0,-1.1c0.1,0 0.2,0.1 0.4,0.2c0,-0.2 0,-0.4 0,-0.5c0,-2 0,-4 0,-6c0,-0.3 0,-0.6 -0.4,-0.8c0,-0.4 0,-0.7 0,-1.1c0.1,0 0.2,0.1 0.4,0.2c0,-0.2 0,-0.4 0,-0.6c0,-2 0,-4 0,-6c0,-0.3 0,-0.7 -0.4,-0.8c0,-0.4 0,-0.7 0,-1.1c0.1,0 0.2,0.1 0.3,0.2c0,-2.2 0,-4.4 0,-6.6c-0.2,0 -0.2,0.1 -0.3,0.2c0,-0.7 0,-1.3 0,-2c0.2,0.2 0.4,0.4 0.6,0.5c1.2,-1.2 2.4,-2.4 3.5,-3.5c-1.3,-1.3 -2.7,-2.7 -4,-4.2c0,-0.4 0,-0.7 0,-1.1c0.1,0.1 0.3,0.2 0.4,0.3c1.3,1.3 2.7,2.7 4,4c0.1,0.1 0.2,0.2 0.3,0.3c1.2,-1.2 2.4,-2.4 3.6,-3.6c-0.3,-0.3 -0.7,-0.6 -1,-0.9c-2.4,-2.4 -4.9,-4.9 -7.3,-7.3c0,-0.4 0,-0.7 0,-1.1c0.2,0.1 0.3,0.2 0.4,0.3c2.7,2.7 5.4,5.4 8.2,8.2c0.1,0.1 0.2,0.2 0.3,0.3c1.2,-1.2 2.4,-2.4 3.6,-3.5c-4.1,-4.1 -8.3,-8.2 -12.4,-12.4c0,-0.4 0,-0.7 0,-1.1c0.2,0.1 0.3,0.2 0.5,0.4c4.1,4.1 8.2,8.2 12.3,12.3c0.1,0.1 0.3,0.2 0.3,0.3c1.2,-1.2 2.4,-2.4 3.5,-3.5c-5.3,-5.3 -10.7,-10.7 -16.1,-16.1c-0.1,0.1 -0.3,0.2 -0.4,0.3c0,-0.4 0,-0.7 0,-1.1c0,-0.1 0.1,-0.3 0.1,-0.4c0,-2.2 0,-4.4 0,-6.5c0,-0.1 0,-0.3 -0.1,-0.4c0,-0.7 0,-1.4 0,-2.1c0.2,0.2 0.3,0.3 0.5,0.4c4,-4 8,-8 11.9,-11.9c-1.1,-1.2 -2.3,-2.3 -3.5,-3.5c-2.7,2.7 -5.5,5.5 -8.3,8.4c-0.2,-0.2 -0.3,-0.3 -0.5,-0.4c0,-0.4 0,-0.7 0,-1.1c0.2,0.1 0.3,0.2 0.5,0.3c2.6,-2.6 5.2,-5.2 7.7,-7.7c-1.2,-1.2 -2.3,-2.3 -3.5,-3.5c-1.3,1.3 -2.8,2.8 -4.2,4.2c-0.2,-0.1 -0.3,-0.2 -0.5,-0.3c0,-0.4 0,-0.8 0,-1.2c0.2,0.1 0.3,0.3 0.5,0.3c1.2,-1.2 2.4,-2.4 3.6,-3.6c-1.1,-1.1 -2.3,-2.3 -3.5,-3.5c-0.2,0.2 -0.3,0.3 -0.5,0.5c0,-0.7 0,-1.4 0,-2.1c0.1,0.1 0.2,0.1 0.4,0.2c0,-0.3 0,-0.4 0,-0.6c0,-2 0,-4.1 0,-6.1c0,-0.3 -0.1,-0.5 -0.4,-0.7c0,-0.4 0,-0.7 0,-1.1c0.1,0 0.2,0.1 0.4,0.2c0,-0.2 0,-0.4 0,-0.5c0,-2 0,-4 0,-6c0,-0.3 0,-0.6 -0.4,-0.8c0,-0.4 0,-0.7 0,-1.1c0.1,0 0.2,0.1 0.4,0.2c0,-0.2 0,-0.4 0,-0.6c0,-2 0,-4 0,-6c0,-0.3 0,-0.7 -0.4,-0.8c0,-0.4 0,-0.7 0,-1.1c0.1,0 0.2,0.1 0.3,0.2c0,-2.2 0,-4.4 0,-6.6c-0.2,0 -0.2,0.1 -0.3,0.2c0,-0.7 0,-1.3 0,-2c0.2,0.2 0.4,0.4 0.6,0.5c1.2,-1.2 2.4,-2.4 3.5,-3.5c-1.3,-1.3 -2.7,-2.7 -4,-4.2c0,-0.4 0,-0.7 0,-1.1c0.1,0.1 0.3,0.2 0.4,0.3c1.3,1.3 2.7,2.7 4,4c0.1,0.1 0.2,0.2 0.3,0.3c1.2,-1.2 2.4,-2.4 3.6,-3.6c-0.3,-0.3 -0.7,-0.6 -1,-0.9c-2.4,-2.4 -4.9,-4.9 -7.3,-7.3c0,-0.4 0,-0.7 0,-1.1c0.2,0.1 0.3,0.2 0.4,0.3c2.7,2.7 5.4,5.4 8.2,8.2c0.1,0.1 0.2,0.2 0.3,0.3c1.2,-1.2 2.4,-2.4 3.6,-3.6c-4.1,-4.1 -8.3,-8.2 -12.4,-12.4c0,-0.4 0,-0.7 0,-1.1c0.2,0.1 0.3,0.2 0.5,0.4c4.1,4.1 8.2,8.2 12.3,12.3c0.1,0.1 0.3,0.2 0.3,0.3c1.2,-1.2 2.4,-2.4 3.5,-3.5c-5.3,-5.3 -10.7,-10.7 -16.1,-16.1c-0.1,0.1 -0.3,0.2 -0.4,0.3c0,-0.4 0,-0.7 0,-1.1c0,-0.1 0.1,-0.3 0.1,-0.4c0,-2.2 0,-4.4 0,-6.5c0,-0.1 0,-0.3 -0.1,-0.4c0,-0.7 0,-1.4 0,-2.1c0.2,0.2 0.3,0.3 0.5,0.4c4,-4 8,-8 11.9,-11.9c-1.1,-1.2 -2.3,-2.3 -3.5,-3.5c-2.7,2.7 -5.5,5.5 -8.3,8.4c-0.2,-0.2 -0.3,-0.3 -0.5,-0.4c0,-0.4 0,-0.7 0,-1.1c0.2,0.1 0.3,0.2 0.5,0.3c2.6,-2.6 5.2,-5.2 7.7,-7.7c-1.2,-1.2 -2.3,-2.3 -3.5,-3.5c-1.3,1.3 -2.8,2.8 -4.2,4.2c-0.2,-0.1 -0.3,-0.2 -0.5,-0.3c0,-0.4 0,-0.8 0,-1.2c0.2,0.1 0.3,0.3 0.5,0.3c1.2,-1.2 2.4,-2.4 3.6,-3.6c-1.1,-1.1 -2.3,-2.3 -3.5,-3.5c-0.2,0.2 -0.3,0.3 -0.5,0.5c0,-0.7 0,-1.4 0,-2.1c0.1,0.1 0.2,0.1 0.4,0.2c0,-0.3 0,-0.4 0,-0.6c0,-2 0,-4.1 0,-6.1c0,-0.3 -0.1,-0.5 -0.4,-0.7c0,-0.4 0,-0.7 0,-1.1c0.1,0 0.2,0.1 0.4,0.2c0,-0.2 0,-0.4 0,-0.5c0,-2 0,-4 0,-6c0,-0.3 0,-0.6 -0.4,-0.8c0,-0.4 0,-0.7 0,-1.1c0.1,0 0.2,0.1 0.4,0.2c0,-0.2 0,-0.4 0,-0.6c0,-2 0,-4 0,-6c0,-0.3 0,-0.7 -0.4,-0.8c0,-0.4 0,-0.7 0,-1.1c0.1,0 0.2,0.1 0.3,0.2c0,-2.2 0,-4.4 0,-6.6c-0.2,0 -0.2,0.1 -0.3,0.2c0,-0.7 0,-1.3 0,-2c0.2,0.2 0.4,0.4 0.6,0.5c1.2,-1.2 2.4,-2.4 3.5,-3.5c-1.3,-1.3 -2.7,-2.7 -4,-4.2c0,-0.4 0,-0.7 0,-1.1c0.1,0.1 0.3,0.2 0.4,0.3c1.3,1.3 2.7,2.7 4,4c0.1,0.1 0.2,0.2 0.3,0.3c1.2,-1.2 2.4,-2.4 3.6,-3.6c-0.3,-0.3 -0.7,-0.6 -1,-0.9c-2.4,-2.4 -4.9,-4.9 -7.3,-7.3c0,-0.4 0,-0.7 0,-1.1c0.2,0.1 0.3,0.2 0.4,0.3c2.7,2.7 5.4,5.4 8.2,8.2c0.1,0.1 0.2,0.2 0.3,0.3c1.2,-1.2 2.4,-2.4 3.6,-3.5c-4.1,-4.1 -8.3,-8.2 -12.4,-12.4c0,-0.4 0,-0.7 0,-1.1c0.2,0.1 0.3,0.2 0.5,0.4c4.1,4.1 8.2,8.2 12.3,12.3c0.1,0.1 0.3,0.2 0.3,0.3c1.2,-1.2 2.4,-2.4 3.5,-3.5c-5.3,-5.3 -10.7,-10.7 -16.1,-16.1c-0.1,0.1 -0.3,0.2 -0.4,0.3c0,-1 0,-2.1 0,-3.2c0.3,0 0.6,0 0.9,0c0,0.5 0,1.1 0,1.6c0,0.2 0.1,0.5 0.3,0.7c0.9,0.9 1.8,1.8 2.7,2.7c0.1,0.1 0.2,0.2 0.3,0.3c0,-1.8 0,-3.5 0,-5.2c0.3,0 0.5,0 0.8,0c0,1.9 0,3.9 0,5.8c0,0.2 0.1,0.5 0.2,0.6c0.9,0.9 1.8,1.8 2.7,2.7c0.1,0.1 0.2,0.1 0.3,0.2c0,-1.3 0,-2.5 0,-3.6c0,-1.9 0,-3.8 0,-5.7c0.3,0 0.5,0 0.8,0c0,3.4 0,6.7 0,10c0,0.2 0.1,0.4 0.2,0.5c0.9,0.9 1.8,1.8 2.7,2.7c0.1,0.1 0.2,0.1 0.3,0.2c0,-0.3 0,-0.5 0,-0.7c0,-4.1 0,-8.2 0,-12.3c0,-0.2 0,-0.4 0,-0.6c0.2,0 0.5,0 0.7,0c0,0.2 0,0.4 0,0.7c0,4.4 0,8.8 0,13.3c0,0.2 0,0.5 0.2,0.7c1.1,1.1 2.2,2.2 3.3,3.3c0,0.7 0,1.4 0,2.1c-1,1 -1.9,2 -2.9,3.1c0.9,0.9 1.9,1.9 2.9,2.9c0,0.4 0,0.7 0,1.1c-0.7,-0.7 -1.4,-1.3 -2.1,-2c-0.5,-0.5 -1,-1 -1.4,-1.4c-1.2,1.2 -2.4,2.4 -3.5,3.5c0,0 0.1,0.1 0.2,0.2c2.2,2.2 4.4,4.4 6.6,6.6c0.1,0.1 0.2,0.1 0.3,0.2c0,0.4 0,0.8 0,1.2c-0.1,-0.1 -0.3,-0.2 -0.4,-0.3c-2.3,-2.3 -4.6,-4.6 -6.9,-6.9c-0.2,-0.2 -0.2,-0.3 -0.3,-0.4c-1.3,1.3 -2.4,2.5 -3.6,3.6c0,0 0.1,0.1 0.2,0.2c3.6,3.6 7.2,7.2 10.7,10.7c0.1,0.1 0.2,0.2 0.3,0.2c0,0.4 0,0.8 0,1.2c-0.2,-0.2 -0.3,-0.3 -0.4,-0.4c-3.7,-3.7 -7.3,-7.3 -11,-11c-0.2,-0.2 -0.3,-0.3 -0.3,-0.3c-1.2,1.2 -2.4,2.4 -3.5,3.5c0.1,0.1 0.2,0.2 0.3,0.3c3.7,3.7 7.3,7.3 11,11c1.3,1.3 2.7,2.7 4,4c0,0.4 0,0.7 0,1.1c-0.1,-0.1 -0.3,-0.2 -0.4,-0.3c-2.2,-2.2 -4.3,-4.3 -6.5,-6.5c-0.1,-0.1 -0.2,-0.3 -0.2,-0.5c0,0 -0.1,0.1 -0.2,0.2c0,4.8 0,9.5 0,14.3c0,0 0.1,0 0.1,0.1c0.1,-0.1 0.2,-0.3 0.3,-0.4c2.2,-2.2 4.3,-4.3 6.4,-6.4c0.1,-0.1 0.3,-0.2 0.4,-0.3c0,0.4 0,0.7 0,1.1c-0.2,0.2 -0.3,0.3 -0.4,0.4c-2.5,2.5 -5,5 -7.5,7.5c-2.4,2.4 -4.7,4.7 -7.1,7.1c-0.1,0.1 -0.2,0.3 -0.3,0.3c1.2,1.2 2.4,2.4 3.6,3.6c0.1,-0.2 0.2,-0.3 0.3,-0.5c3.7,-3.7 7.3,-7.4 11,-11c0.1,-0.1 0.3,-0.2 0.4,-0.3c0,0.4 0,0.8 0,1.2c-0.1,0.1 -0.2,0.2 -0.3,0.3c-3.5,3.5 -7.1,7.1 -10.6,10.6c-0.1,0.1 -0.2,0.2 -0.3,0.3c1.2,1.2 2.4,2.4 3.5,3.5c0.1,-0.1 0.2,-0.2 0.4,-0.3c2.3,-2.3 4.6,-4.6 6.9,-6.9c0.1,-0.1 0.3,-0.2 0.4,-0.3c0,0.4 0,0.8 0,1.2c-0.1,0.1 -0.2,0.2 -0.3,0.2c-2.2,2.2 -4.4,4.4 -6.6,6.6c-0.1,0.1 -0.2,0.2 -0.2,0.2c1.2,1.2 2.4,2.4 3.5,3.5c0.8,-0.8 1.8,-1.8 2.7,-2.7c0.3,-0.3 0.5,-0.5 0.8,-0.7c0,0.4 0,0.7 0,1.1c-1,1 -2,2 -2.9,2.9c1,1 2,2 2.9,3c0,0.4 0,0.7 0,1.1c-0.1,-0.1 -0.3,-0.2 -0.4,-0.3c-0.9,-0.9 -1.8,-1.8 -2.7,-2.7c-0.1,-0.1 -0.2,-0.2 -0.4,-0.3c0,0.3 0,0.5 0,0.7c0,5.9 0,11.8 0,17.7c0,4.5 0,9 0,13.6c0,0.2 0,0.5 0.2,0.7c1.1,1.1 2.2,2.2 3.3,3.3c0,0.7 0,1.4 0,2.1c-1,1 -1.9,2 -2.9,3.1c0.9,0.9 1.9,1.9 2.9,2.9c0,0.4 0,0.7 0,1.1c-0.7,-0.7 -1.4,-1.3 -2.1,-2c-0.5,-0.5 -1,-1 -1.4,-1.4c-1.2,1.2 -2.4,2.4 -3.5,3.5c0,0 0.1,0.1 0.2,0.2c2.2,2.2 4.4,4.4 6.6,6.6c0.1,0.1 0.2,0.1 0.3,0.2c0,0.4 0,0.8 0,1.2c-0.1,-0.1 -0.3,-0.2 -0.4,-0.3c-2.3,-2.3 -4.6,-4.6 -6.9,-6.9c-0.2,-0.2 -0.2,-0.3 -0.3,-0.4c-1.3,1.3 -2.4,2.5 -3.6,3.6c0,0 0.1,0.1 0.2,0.2c3.6,3.6 7.2,7.2 10.7,10.7c0.1,0.1 0.2,0.2 0.3,0.2c0,0.4 0,0.8 0,1.2c-0.2,-0.2 -0.3,-0.3 -0.4,-0.4c-3.7,-3.7 -7.3,-7.3 -11,-11c-0.2,-0.2 -0.3,-0.3 -0.3,-0.3c-1.2,1.2 -2.4,2.4 -3.5,3.5c0.1,0.1 0.2,0.2 0.3,0.3c3.7,3.7 7.3,7.3 11,11c1.3,1.3 2.7,2.7 4,4c0,0.4 0,0.7 0,1.1c-0.1,-0.1 -0.3,-0.2 -0.4,-0.3c-2.2,-2.2 -4.3,-4.3 -6.5,-6.5c-0.1,-0.1 -0.2,-0.3 -0.2,-0.5c0,0 -0.1,0.1 -0.2,0.2c0,4.8 0,9.5 0,14.3h0.1c0.1,-0.1 0.2,-0.2 0.3,-0.3c2.2,-2.2 4.3,-4.3 6.4,-6.4c0.1,-0.1 0.3,-0.2 0.4,-0.3c0,0.4 0,0.7 0,1.1c-0.2,0.2 -0.3,0.3 -0.4,0.4c-2.5,2.5 -5,5 -7.5,7.5c-2.4,2.4 -4.7,4.7 -7.1,7.1c-0.1,0.1 -0.2,0.3 -0.3,0.3c1.2,1.2 2.4,2.4 3.6,3.6c0.1,-0.2 0.2,-0.3 0.3,-0.5c3.7,-3.7 7.3,-7.4 11,-11c0.1,-0.1 0.3,-0.2 0.4,-0.3c0,0.4 0,0.8 0,1.2c-0.1,0.1 -0.2,0.2 -0.3,0.3c-3.5,3.5 -7.1,7.1 -10.6,10.6c-0.1,0.1 -0.2,0.2 -0.3,0.3c1.2,1.2 2.4,2.4 3.5,3.5c0.1,-0.1 0.2,-0.2 0.4,-0.3c2.3,-2.3 4.6,-4.6 6.9,-6.9c0.1,-0.1 0.3,-0.2 0.4,-0.3c0,0.4 0,0.8 0,1.2c-0.1,0.1 -0.2,0.2 -0.3,0.2c-2.2,2.2 -4.4,4.4 -6.6,6.6c-0.1,0.1 -0.2,0.2 -0.2,0.2c1.2,1.2 2.4,2.4 3.5,3.5c0.8,-0.8 1.8,-1.8 2.7,-2.7c0.3,-0.3 0.5,-0.5 0.8,-0.7c0,0.4 0,0.7 0,1.1c-1,1 -2,2 -2.9,2.9c1,1 2,2 2.9,3c0,0.4 0,0.7 0,1.1c-0.1,-0.1 -0.3,-0.2 -0.4,-0.3c-0.9,-0.9 -1.8,-1.8 -2.7,-2.7c-0.1,-0.1 -0.2,-0.2 -0.4,-0.3c0,0.3 0,0.5 0,0.7c0,5.9 0,11.8 0,17.7c0,4.5 0,9 0,13.6c0,0.2 0,0.5 0.2,0.7c1.1,1.1 2.2,2.2 3.3,3.3c0,0.7 0,1.4 0,2.1c-1,1 -1.9,2 -2.9,3.1c0.9,0.9 1.9,1.9 2.9,2.9c0,0.4 0,0.7 0,1.1c-0.7,-0.7 -1.4,-1.3 -2.1,-2c-0.5,-0.5 -1,-1 -1.4,-1.4c-1.2,1.2 -2.4,2.4 -3.5,3.5c0,0 0.1,0.1 0.2,0.2c2.2,2.2 4.4,4.4 6.6,6.6c0.1,0.1 0.2,0.1 0.3,0.2c0,0.4 0,0.8 0,1.2c-0.1,-0.1 -0.3,-0.2 -0.4,-0.3c-2.3,-2.3 -4.6,-4.6 -6.9,-6.9c-0.2,-0.2 -0.2,-0.3 -0.3,-0.4c-1.3,1.3 -2.4,2.5 -3.6,3.6c0,0 0.1,0.1 0.2,0.2c3.6,3.6 7.2,7.2 10.7,10.7c0.1,0.1 0.2,0.2 0.3,0.2c0,0.4 0,0.8 0,1.2c-0.2,-0.2 -0.3,-0.3 -0.4,-0.4c-3.7,-3.7 -7.3,-7.3 -11,-11c-0.2,-0.2 -0.3,-0.3 -0.3,-0.3c-1.2,1.2 -2.4,2.4 -3.5,3.5c0.1,0.1 0.2,0.2 0.3,0.3c3.7,3.7 7.3,7.3 11,11c1.3,1.3 2.7,2.7 4,4c0,0.4 0,0.7 0,1.1c-0.1,-0.1 -0.3,-0.2 -0.4,-0.3c-2.2,-2.2 -4.3,-4.3 -6.5,-6.5c-0.1,-0.1 -0.2,-0.3 -0.2,-0.5c0,0 -0.1,0.1 -0.2,0.2c0,4.8 0,9.5 0,14.4c0.2,-0.2 0.3,-0.3 0.4,-0.4c2.2,-2.2 4.3,-4.3 6.4,-6.4c0.1,-0.1 0.3,-0.2 0.4,-0.3c0,0.4 0,0.7 0,1.1c-0.2,0.2 -0.3,0.3 -0.4,0.4c-2.5,2.5 -5,5 -7.5,7.5c-2.4,2.4 -4.7,4.7 -7.1,7.1c-0.1,0.1 -0.2,0.3 -0.3,0.3c1.2,1.2 2.4,2.4 3.6,3.6c0.1,-0.2 0.2,-0.3 0.3,-0.5c3.7,-3.7 7.3,-7.4 11,-11c0.1,-0.1 0.3,-0.2 0.4,-0.3c0,0.4 0,0.8 0,1.2c-0.1,0.1 -0.2,0.2 -0.3,0.3c-3.5,3.5 -7.1,7.1 -10.6,10.6c-0.1,0.1 -0.2,0.2 -0.3,0.3c1.2,1.2 2.4,2.4 3.5,3.5c0.1,-0.1 0.2,-0.2 0.4,-0.3c2.3,-2.3 4.6,-4.6 6.9,-6.9c0.1,-0.1 0.3,-0.2 0.4,-0.3c0,0.4 0,0.8 0,1.2c-0.1,0.1 -0.2,0.2 -0.3,0.2c-2.2,2.2 -4.4,4.4 -6.6,6.6c-0.1,0.1 -0.2,0.2 -0.2,0.2c1.2,1.2 2.4,2.4 3.5,3.5c0.9,-0.9 1.8,-1.8 2.7,-2.7c0.3,-0.3 0.5,-0.5 0.8,-0.7c0,0.4 0,0.7 0,1.1c-1,1 -2,2 -2.9,2.9c1,1 2,2 2.9,3c0,0.4 0,0.7 0,1.1c-0.1,-0.1 -0.3,-0.2 -0.4,-0.3c-0.9,-0.9 -1.8,-1.8 -2.7,-2.7c-0.1,-0.1 -0.2,-0.2 -0.4,-0.3c0,0.3 0,0.5 0,0.7c0,5.9 0,11.8 0,17.7c0,4.5 0,9 0,13.6c0,0.2 0,0.5 0.2,0.7c1.1,1.1 2.2,2.2 3.3,3.3c0,0.7 0,1.4 0,2.1c-1,1 -1.9,2 -2.9,3.1c0.9,0.9 1.9,1.9 2.9,2.9c0,0.4 0,0.7 0,1.1c-0.7,-0.7 -1.4,-1.3 -2.1,-2c-0.5,-0.5 -1,-1 -1.4,-1.4c-1.2,1.2 -2.4,2.4 -3.5,3.5c0,0 0.1,0.1 0.2,0.2c2.2,2.2 4.4,4.4 6.6,6.6c0.1,0.1 0.2,0.1 0.3,0.2c0,0.4 0,0.8 0,1.2c-0.1,-0.1 -0.3,-0.2 -0.4,-0.3c-2.3,-2.3 -4.6,-4.6 -6.9,-6.9c-0.2,-0.2 -0.2,-0.3 -0.3,-0.4c-1.3,1.3 -2.4,2.5 -3.6,3.6c0,0 0.1,0.1 0.2,0.2c3.6,3.6 7.2,7.2 10.7,10.7c0.1,0.1 0.2,0.2 0.3,0.2c0,0.4 0,0.8 0,1.2c-0.2,-0.2 -0.3,-0.3 -0.4,-0.4c-3.7,-3.7 -7.3,-7.3 -11,-11c-0.2,-0.2 -0.3,-0.3 -0.3,-0.3c-1.2,1.2 -2.4,2.4 -3.5,3.5c0.1,0.1 0.2,0.2 0.3,0.3c3.7,3.7 7.3,7.3 11,11c1.3,1.3 2.7,2.7 4,4c0,0.4 0,0.7 0,1.1c-0.1,-0.1 -0.3,-0.2 -0.4,-0.3c-2.2,-2.2 -4.3,-4.3 -6.5,-6.5c-0.1,-0.1 -0.2,-0.3 -0.2,-0.5c0,0 -0.1,0.1 -0.2,0.2c0,4.8 0,9.5 0,14.3c0,0 0.1,0 0.1,0.1c0.1,-0.1 0.2,-0.3 0.3,-0.4c2.2,-2.2 4.3,-4.3 6.4,-6.4c0.1,-0.1 0.3,-0.2 0.4,-0.3c0,0.4 0,0.7 0,1.1c-0.2,0.2 -0.3,0.3 -0.4,0.4c-2.5,2.5 -5,5 -7.5,7.5c-2.4,2.4 -4.7,4.7 -7.1,7.1c-0.1,0.1 -0.2,0.3 -0.3,0.3c1.2,1.2 2.4,2.4 3.6,3.6c0.1,-0.2 0.2,-0.3 0.3,-0.5c3.7,-3.7 7.3,-7.4 11,-11c0.1,-0.1 0.3,-0.2 0.4,-0.3c0,0.4 0,0.8 0,1.2c-0.1,0.1 -0.2,0.2 -0.3,0.3c-3.5,3.5 -7.1,7.1 -10.6,10.6c-0.1,0.1 -0.2,0.2 -0.3,0.3c1.2,1.2 2.4,2.4 3.5,3.5c0.1,-0.1 0.2,-0.2 0.4,-0.3c2.3,-2.3 4.6,-4.6 6.9,-6.9c0.1,-0.1 0.3,-0.2 0.4,-0.3c0,0.4 0,0.8 0,1.2c-0.1,0.1 -0.2,0.2 -0.3,0.2c-2.2,2.2 -4.4,4.4 -6.6,6.6c-0.1,0.1 -0.2,0.2 -0.2,0.2c1.2,1.2 2.4,2.4 3.5,3.5c0.9,-0.9 1.8,-1.8 2.7,-2.7c0.3,-0.3 0.5,-0.5 0.8,-0.7c0,0.4 0,0.7 0,1.1c-1,1 -2,2 -2.9,2.9c1,1 2,2 2.9,3c0,0.4 0,0.7 0,1.1c-0.1,-0.1 -0.3,-0.2 -0.4,-0.3c-0.9,-0.9 -1.8,-1.8 -2.7,-2.7c-0.1,-0.1 -0.2,-0.2 -0.4,-0.3c0,0.3 0,0.5 0,0.7c0,5.9 0,11.8 0,17.7c0,4.5 0,9 0,13.6c0,0.2 0,0.5 0.2,0.7c1.1,1.1 2.2,2.2 3.3,3.3c0,0.7 0,1.4 0,2.1c-1,1 -1.9,2 -2.9,3.1c0.9,0.9 1.9,1.9 2.9,2.9c0,0.4 0,0.7 0,1.1c-0.7,-0.7 -1.4,-1.3 -2.1,-2c-0.5,-0.5 -1,-1 -1.4,-1.4c-1.2,1.2 -2.4,2.4 -3.5,3.5c0,0 0.1,0.1 0.2,0.2c2.2,2.2 4.4,4.4 6.6,6.6c0.1,0.1 0.2,0.1 0.3,0.2c0,0.4 0,0.8 0,1.2c-0.1,-0.1 -0.3,-0.2 -0.4,-0.3c-2.3,-2.3 -4.6,-4.6 -6.9,-6.9c-0.2,-0.2 -0.2,-0.3 -0.3,-0.4c-1.3,1.3 -2.4,2.5 -3.6,3.6c0,0 0.1,0.1 0.2,0.2c3.6,3.6 7.2,7.2 10.7,10.7c0.1,0.1 0.2,0.2 0.3,0.2c0,0.4 0,0.8 0,1.2c-0.2,-0.2 -0.3,-0.3 -0.4,-0.4c-3.7,-3.7 -7.3,-7.3 -11,-11c-0.2,-0.2 -0.2,-0.3 -0.3,-0.4c-1.3,1.3 -2.4,2.4 -3.7,3.7c0.1,0.1 0.2,0.2 0.3,0.3c2.6,2.6 5.2,5.2 7.7,7.7c0.1,0.1 0.2,0.3 0.3,0.4c-0.4,0 -0.8,0 -1.2,0c-0.1,-0.1 -0.2,-0.3 -0.3,-0.4c-0.8,-0.8 -1.6,-1.6 -2.4,-2.4c-0.1,-0.2 -0.2,-0.3 -0.3,-0.5c-0.1,0 -0.2,0.1 -0.2,0.2c0,1 0,2.1 0,3.2c-0.3,0 -0.5,0 -0.8,0c0,-1.3 0,-2.5 0,-3.8c0,-0.2 -0.1,-0.5 -0.2,-0.6c-1,-1 -1.9,-2 -2.9,-2.9c-0.2,-1.8 -0.2,-1.8 -0.4,-1.9c0,0.3 0,0.4 0,0.6c0,2.3 0,4.6 0,6.9c-0.4,0 -0.8,0 -1.2,0c0,-0.4 0,-0.8 0,-1.3c0.1,0 0.2,0.1 0.3,0.2c0,-2.2 0,-4.4 0,-6.6c-0.2,0 -0.2,0.1 -0.3,0.2c0,-0.7 0,-1.3 0,-2c0.2,0.2 0.4,0.4 0.6,0.5c1.2,-1.2 2.4,-2.4 3.5,-3.5c-1.3,-1.3 -2.7,-2.7 -4,-4.2c0,-0.4 0,-0.7 0,-1.1c0.1,0.1 0.3,0.2 0.4,0.3c1.3,1.3 2.7,2.7 4,4c0.1,0.1 0.2,0.2 0.3,0.3c1.2,-1.2 2.4,-2.4 3.6,-3.6c-0.3,-0.3 -0.7,-0.6 -1,-0.9c-2.4,-2.4 -4.9,-4.9 -7.3,-7.3c0,-0.4 0,-0.7 0,-1.1c0.2,0.1 0.3,0.2 0.4,0.3c2.7,2.7 5.4,5.4 8.2,8.2c0.1,0.1 0.2,0.2 0.3,0.3c1.2,-1.2 2.4,-2.4 3.6,-3.6c-4.1,-4.1 -8.3,-8.2 -12.4,-12.4c0,-0.4 0,-0.7 0,-1.1c0.2,0.1 0.3,0.2 0.5,0.4c4.1,4.1 8.2,8.2 12.3,12.3c0.1,0.1 0.3,0.2 0.3,0.3c1.2,-1.2 2.4,-2.4 3.5,-3.5c-5.3,-5.3 -10.7,-10.7 -16.1,-16.1c-0.1,0.1 -0.3,0.2 -0.4,0.3c0,-0.4 0,-0.7 0,-1.1c0,-0.1 0.1,-0.3 0.1,-0.4c0,-2.2 0,-4.4 0,-6.5c0,-0.1 0,-0.3 -0.1,-0.4c0,-0.7 0,-1.4 0,-2.1c0.2,0.2 0.3,0.3 0.5,0.4c4,-4 8,-8 11.9,-11.9c-1.1,-1.2 -2.3,-2.3 -3.5,-3.5c-2.7,2.7 -5.5,5.5 -8.3,8.4c-0.2,-0.2 -0.3,-0.3 -0.5,-0.4c0,-0.4 0,-0.7 0,-1.1c0.2,0.1 0.3,0.2 0.5,0.3c2.6,-2.6 5.2,-5.2 7.7,-7.7c-1.2,-1.2 -2.3,-2.3 -3.5,-3.5c-1.3,1.3 -2.8,2.8 -4.2,4.2c-0.2,-0.1 -0.3,-0.2 -0.5,-0.3c0,-0.4 0,-0.8 0,-1.2c0.2,0.1 0.3,0.3 0.5,0.3c1.2,-1.2 2.4,-2.4 3.6,-3.6c-1.1,-1.1 -2.3,-2.3 -3.5,-3.5c-0.2,0.2 -0.3,0.3 -0.5,0.5c0,-0.7 0,-1.4 0,-2.1c0.1,0.1 0.2,0.1 0.4,0.2c0,-0.3 0,-0.4 0,-0.6c0,-2 0,-4.1 0,-6.1c0,-0.3 -0.1,-0.5 -0.4,-0.7c0,-0.4 0,-0.7 0,-1.1c0.1,0 0.2,0.1 0.4,0.2c0,-0.2 0,-0.4 0,-0.5c0,-2 0,-4 0,-6c0,-0.3 0,-0.6 -0.4,-0.8c0,-0.4 0,-0.7 0,-1.1c0.1,0 0.2,0.1 0.4,0.2c0,-0.2 0,-0.4 0,-0.6c0,-2 0,-4 0,-6c0,-0.3 0,-0.7 -0.4,-0.8c0,-0.4 0,-0.7 0,-1.1c0.1,0 0.2,0.1 0.3,0.2c0,-2.2 0,-4.4 0,-6.6c-0.2,0 -0.2,0.1 -0.3,0.2c0,-0.7 0,-1.3 0,-2c0.2,0.2 0.4,0.4 0.6,0.5c1.2,-1.2 2.4,-2.4 3.5,-3.5c-1.3,-1.3 -2.7,-2.7 -4,-4.2c0,-0.4 0,-0.7 0,-1.1c0.1,0.1 0.3,0.2 0.4,0.3c1.3,1.3 2.7,2.7 4,4c0.1,0.1 0.2,0.2 0.3,0.3c1.2,-1.2 2.4,-2.4 3.6,-3.6c-0.3,-0.3 -0.7,-0.6 -1,-0.9c-2.4,-2.4 -4.9,-4.9 -7.3,-7.3c0,-0.4 0,-0.7 0,-1.1c0.2,0.1 0.3,0.2 0.4,0.3c2.7,2.7 5.4,5.4 8.2,8.2c0.1,0.1 0.2,0.2 0.3,0.3c1.2,-1.2 2.4,-2.4 3.6,-3.5c-4.1,-4.1 -8.3,-8.2 -12.4,-12.4c0,-0.4 0,-0.7 0,-1.1c0.2,0.1 0.3,0.2 0.5,0.4c4.1,4.1 8.2,8.2 12.3,12.3c0.1,0.1 0.3,0.2 0.3,0.3c1.2,-1.2 2.4,-2.4 3.5,-3.5c-6.1,-5.8 -11.5,-11.2 -16.9,-16.5c-0.1,0.1 -0.3,0.2 -0.4,0.3c0,-0.4 0,-0.7 0,-1.1c0,-0.1 0.1,-0.3 0.1,-0.4c0,-2.2 0,-4.4 0,-6.5c0,-0.1 0,-0.3 -0.1,-0.4c0,-0.7 0,-1.4 0,-2.1c0.2,0.2 0.3,0.3 0.5,0.4c4,-4 8,-8 11.9,-11.9c-1.2,-1.2 -2.3,-2.3 -3.5,-3.5c-2.7,2.7 -5.5,5.5 -8.3,8.4c-1.2,-0.5 -1.4,-0.7 -1.5,-0.8zM1.1,767.1c0.1,0 0.1,0 0.2,-0.1c1,-1 2,-2 3,-3c0.1,-0.1 0.2,-0.3 0.2,-0.5c0,-7.9 0,-15.8 0,-23.8c0,-0.2 -0.1,-0.4 -0.2,-0.5c-1,-1 -2,-2 -3,-3c0,0 -0.1,0 -0.2,-0.1c0,10.3 0,20.6 0,31zM1.1,436.6c0,10.4 0,20.7 0,31.1c0.1,0 0.2,-0.1 0.2,-0.1c1,-1 2,-2 3,-3c0.1,-0.1 0.2,-0.3 0.2,-0.5c0,-7.9 0,-15.8 0,-23.7c0,-0.2 0,-0.3 -0.1,-0.5c-1.1,-1.1 -2.1,-2.1 -3.3,-3.3zM1.1,667.3c0.1,0 0.2,-0.1 0.2,-0.1c1,-1 2,-2 3,-3c0.1,-0.1 0.2,-0.3 0.2,-0.5c0,-7.9 0,-15.8 0,-23.7c0,-0.2 -0.1,-0.5 -0.3,-0.7c-0.9,-1 -1.8,-1.9 -2.8,-2.8c-0.1,-0.1 -0.2,-0.2 -0.3,-0.2c0,10.3 0,20.6 0,31zM1.1,536.4c0,10.4 0,20.7 0,31.1c0.1,0 0.1,0 0.2,-0.1c1,-1 2,-2 3.1,-3.1c0.1,-0.1 0.2,-0.3 0.2,-0.5c0,-7.9 0,-15.8 0,-23.7c0,-0.2 0,-0.3 -0.1,-0.5c-1.2,-1 -2.2,-2 -3.4,-3.2zM12.4,781.7c-1,1 -2,2 -3,3c-0.2,0.2 -0.3,0.5 -0.3,0.7c0,8 0,15.9 0,23.9c0,0.2 0.1,0.5 0.3,0.7c0.9,0.9 1.8,1.8 2.7,2.7c0.1,0.1 0.2,0.2 0.3,0.3c0,-10.5 0,-20.9 0,-31.3zM12.4,513.6c0,-10.5 0,-20.8 0,-31.3c-1,1 -1.9,1.9 -2.9,2.9c-0.3,0.3 -0.4,0.6 -0.4,1c0,7.7 0,15.5 0,23.2c0,0.7 0.2,1.2 0.7,1.7c0.9,0.7 1.7,1.6 2.6,2.5zM12.3,613.4c0,-10.5 0,-20.8 0,-31.3c-1,1 -1.9,1.9 -2.9,2.9c-0.3,0.3 -0.4,0.6 -0.4,1c0,7.3 0,14.7 0,22c0,0.7 -0.2,1.5 0.1,2.1c0.3,0.6 0.9,1 1.4,1.5c0.7,0.6 1.2,1.2 1.8,1.8zM12.4,681.9c-1,1 -1.8,1.9 -2.8,2.8c-0.4,0.3 -0.5,0.7 -0.5,1.2c0,1.9 0,3.9 0,5.8c0,5.9 0,11.8 0,17.6c0,0.4 0.1,0.7 0.4,0.9c0.7,0.7 1.5,1.5 2.2,2.2c0.2,0.2 0.4,0.5 0.6,0.7l0.1,-0.1c0,-10.3 0,-20.7 0,-31.1zM8.1,609.2l0.1,-0.1c0,-7.6 0,-15.2 0,-22.8c-0.1,0 -0.1,0 -0.2,0.1c-1,1 -2,2 -2.9,2.9c-0.1,0.1 -0.1,0.4 -0.1,0.5c0,5.2 0,10.5 0,15.7c0,0.2 0.1,0.5 0.3,0.7c0.7,0.8 1.5,1.5 2.2,2.2c0.2,0.3 0.4,0.6 0.6,0.8zM8.2,509.5c0,-7.7 0,-15.3 0,-23c-0.2,0.2 -0.3,0.2 -0.4,0.3c-0.8,0.8 -1.6,1.6 -2.4,2.4c-0.3,0.3 -0.5,0.7 -0.5,1.1c0,4.9 0,9.7 0,14.5c0,1 0.2,1.7 1,2.3c0.8,0.8 1.5,1.5 2.3,2.4zM8.1,709c0,0 0.1,-0.1 0.2,-0.1c0,-7.6 0,-15.2 0,-22.8c-0.1,0 -0.1,0 -0.2,0.1c-1,1 -2,2 -2.9,2.9c-0.2,0.2 -0.2,0.4 -0.2,0.5c0,5.3 0,10.5 0,15.8c0,0.2 0.1,0.4 0.3,0.6c0.6,0.7 1.2,1.2 1.8,1.9c0.3,0.4 0.7,0.7 1,1.1zM8.2,785.9c-0.1,0 -0.1,0 -0.2,0.1c-1,1 -2,2 -2.9,2.9c-0.1,0.1 -0.1,0.4 -0.1,0.5c0,5.2 0,10.5 0,15.7c0,0.2 0.1,0.5 0.3,0.7c0.7,0.8 1.5,1.5 2.2,2.2c0.2,0.2 0.4,0.5 0.7,0.8l0.1,-0.1c-0.1,-7.6 -0.1,-15.2 -0.1,-22.8zM5.4,640.4c0,7.6 0,15.1 0,22.7c1,-1 2,-2 3,-3c0.1,-0.1 0.2,-0.3 0.2,-0.5c0,-5.2 0,-10.4 0,-15.6c0,-0.2 0,-0.3 -0.2,-0.5c-1,-1 -1.9,-2 -3,-3.1zM5.4,540.7c0,7.6 0,15.1 0,22.6c1,-1 2,-2 3,-3c0.1,-0.1 0.2,-0.3 0.2,-0.5c0,-5.2 0,-10.4 0,-15.6c0,-0.2 0,-0.3 -0.2,-0.5c-1,-1 -2,-2 -3,-3zM5.3,762.9c0.1,-0.1 0.2,-0.1 0.2,-0.2c0.9,-0.9 1.9,-1.8 2.8,-2.8c0.1,-0.1 0.2,-0.4 0.2,-0.6c0,-5.2 0,-10.3 0,-15.5c0,-0.2 -0.1,-0.5 -0.3,-0.7c-0.8,-0.9 -1.7,-1.7 -2.6,-2.6c-0.1,-0.1 -0.2,-0.2 -0.3,-0.2c0,7.5 0,15 0,22.6zM5.4,463.5c1.1,-1.1 2.1,-2 3,-3c0.1,-0.1 0.2,-0.3 0.2,-0.5c0,-5.2 0,-10.4 0,-15.5c0,-0.2 -0.1,-0.5 -0.3,-0.7c-0.7,-0.7 -1.4,-1.4 -2.2,-2.2c-0.2,-0.2 -0.4,-0.5 -0.6,-0.7l-0.1,0.1c0,7.5 0,14.9 0,22.5zM4.1,690.2c-0.2,0.2 -0.3,0.2 -0.3,0.3c-0.9,0.9 -1.8,1.7 -2.6,2.7c-0.2,0.2 -0.3,0.5 -0.3,0.7c0,2.5 0,4.9 0,7.4c0,0.2 0.1,0.5 0.3,0.7c0.8,0.9 1.8,1.8 2.6,2.7c0.1,0.1 0.2,0.2 0.3,0.3c0,-5.1 0,-9.9 0,-14.8zM4.1,605.1c0,-4.9 0,-9.7 0,-14.6c-0.1,0.1 -0.2,0.1 -0.2,0.2c-1,1 -1.9,1.9 -2.9,2.9c-0.1,0.1 -0.2,0.3 -0.2,0.5c0,2.5 0,5 0,7.4c0,0.2 0.1,0.5 0.3,0.6c0.8,0.9 1.7,1.7 2.6,2.6c0.1,0.1 0.2,0.2 0.4,0.4zM4.1,490.7c-0.1,0 -0.2,0.1 -0.2,0.1c-1,1 -2,2 -2.9,2.9c-0.1,0.1 -0.2,0.3 -0.2,0.5c0,2.5 0,4.9 0,7.4c0,0.2 0.1,0.5 0.3,0.7c0.9,0.9 1.8,1.8 2.7,2.7c0.1,0.1 0.2,0.2 0.3,0.2c0,-4.8 0,-9.6 0,-14.5zM4.1,804.6c0,-4.9 0,-9.7 0,-14.6c-0.1,0.1 -0.2,0.1 -0.2,0.2c-1,1 -1.9,1.9 -2.9,2.9c-0.1,0.1 -0.2,0.3 -0.2,0.5c0,2.5 0,5 0,7.4c0,0.2 0.1,0.5 0.3,0.6c0.8,0.9 1.7,1.7 2.6,2.6c0.1,0.1 0.2,0.2 0.4,0.4z"></path></g></g></g></g></svg>